# xmcd
#
# Track frame offsets:
#	150
#	11899
#	28134
#	46802
#	58833
#	71161
#	86098
#	97646
#	112520
#	124291
#
# Disc length: 1847 seconds
#
# Revision: 1
# Processed by: cddbd v1.5.2PL0 Copyright (c) Steve Scherf et al.
# Submitted via: audiograbber 1.83.01
#
DISCID=7e07350a
DTITLE=Various Artist - Happiest girl in the whole USA
DYEAR=2006
DGENRE=country
TTITLE0=Donna Fargo - Happiest girl in the whole U.S.A.
TTITLE1=Lynn Anderson - When I dream
TTITLE2=Juice Newton - Angel of the morning
TTITLE3=Billie Jo Spears - Look what they´ve done to my song
TTITLE4=Wilma Lee Cooper - Big midnight special
TTITLE5=Donna Fargo - That was yesterday
TTITLE6=Holly Dunn - Are you ever gonna love me again
TTITLE7=Sue Thompson - Sad movies make me cry
TTITLE8=Patsy Cline - Walkin´ after midnight
TTITLE9=Brenda Lee - I want to be wanted
EXTD=
EXTT0=
EXTT1=
EXTT2=
EXTT3=
EXTT4=
EXTT5=
EXTT6=
EXTT7=
EXTT8=
EXTT9=
PLAYORDER=
